<?xml version="1.0" encoding="utf-8"?>
<!-- Generator: Adobe Illustrator 18.0.0, SVG Export Plug-In . SVG Version: 6.00 Build 0)  -->
<!DOCTYPE svg PUBLIC "-//W3C//DTD SVG 1.1 Tiny//EN" "http://www.w3.org/Graphics/SVG/1.1/DTD/svg11-tiny.dtd">
<svg version="1.1" baseProfile="tiny" xmlns="http://www.w3.org/2000/svg" xmlns:xlink="http://www.w3.org/1999/xlink" x="0px"
	 y="0px" viewBox="0 0 5000 5000" xml:space="preserve">
<g id="Layer_1">
	<path fill="#FFFFFF" d="M1384.5,2457.2c-6.6-1.4-13.3-2.3-19.8-4.1c-31.6-8.7-50.6-30.3-61.6-60.9c8.7-2,17-3.9,25.6-5.9
		c0.6,1.2,1.2,2.3,1.7,3.5c10.5,28.2,31.6,41.7,60.9,43.4c12,0.7,24-0.3,35.3-4.8c19.2-7.7,29.2-27.4,24-47.1
		c-2.3-8.6-8.2-14.2-15.3-19c-10.5-7.1-22.8-8.7-34.6-12c-16.8-4.6-34-8.2-50.2-14.3c-39-14.6-45.3-65.2-24.1-91.5
		c12.8-15.9,30.2-23.4,50-26.2c1.4-0.2,2.8-0.7,4.3-1c7.7,0,15.3,0,23,0c8.2,2,16.6,3.3,24.5,6.1c24.1,8.8,38,27.2,46.4,51.1
		c-8.9,2.6-17.2,5.1-24.7,7.3c-4-7.2-6.9-14.7-11.8-20.5c-18.9-22.4-57-26.5-81-9.8c-17.8,12.4-21,42.2,2.4,54.8
		c4.4,2.3,9,4.5,13.7,5.8c10.7,3,21.6,5.5,32.4,8c15.6,3.7,31.5,6.6,45.8,14.7c26.3,14.9,34.1,38.4,29.7,64.7
		c-4.8,28.8-23.6,45.6-50.9,53.5c-6.6,1.9-13.6,2.8-20.4,4.1C1401.2,2457.2,1392.9,2457.2,1384.5,2457.2z"/>
	<path fill="#FFFFFF" d="M1041.6,2457.2c-7.6-1.7-15.4-2.7-22.8-5.1c-25.5-8.4-43.5-24.9-53.3-50.9c9-3,17.7-5.9,26.7-8.9
		c0.8,2.1,1.5,3.9,2.2,5.7c7,18.8,20.2,30.4,40,34.4c15.4,3.1,30.8,2.8,45.8-2.1c18.4-6,28-19.4,30-38.4
		c1.7-16.3-7.3-31.3-23.3-39.7c-11.3-5.9-23.6-7.7-36.2-7.9c-9.3-0.1-18.6,0-28.1,0c0-7.8,0-15,0-23c5.1,0,10.2,0.3,15.3-0.1
		c11.9-0.8,24.2-0.4,35.6-3.3c31.1-8,35.5-44.7,19.5-62.2c-9.6-10.4-22-14.7-35.7-15.3c-26.7-1.2-44.8,10.1-55.8,34.4
		c-0.5,1-1,2.1-1.6,3.5c-8.5-2.4-16.9-4.8-25.8-7.4c8.4-20.4,21.1-36.7,41.4-45.4c8.3-3.6,17.5-4.9,26.2-7.3
		c0.9-0.3,1.8-0.6,2.7-0.9c7.7,0,15.3,0,23,0c5.9,1.4,12,2.2,17.8,4.1c21.1,6.9,37,19.8,43.8,41.5c8.8,28.3-6.7,57.2-34.8,66.4
		c-1.4,0.5-2.8,0.9-5.3,1.8c3.1,0.9,5.2,1.5,7.3,2.1c22.3,7.3,39.1,20.5,43,44.9c4.5,28-7.3,51.5-31.8,66.1
		c-11.6,6.9-24.3,10.5-37.7,12c-1.4,0.2-2.9,0.6-4.3,1C1057.6,2457.2,1049.6,2457.2,1041.6,2457.2z"/>
	<path fill="#FFFFFF" d="M1148.6,2222.3c10.5,0,20.1-0.2,29.7,0.2c1.6,0.1,3.6,2,4.6,3.6c15,25.1,29.9,50.3,44.9,75.5
		c0.9,1.6,1.9,3.1,3.3,5.2c1.3-1.8,2.4-3.3,3.4-4.9c15.3-25.2,30.6-50.3,45.8-75.5c1.8-2.9,3.5-4.2,7-4.1c6.9,0.3,13.9,0.1,21.7,0.1
		c-5.6,9.2-10.8,17.6-16,26.1c-15.4,25.1-30.7,50.2-46.2,75.2c-1.9,3-1.6,5.1,0.1,8c22.9,38.5,45.6,77,68.4,115.5
		c0.8,1.4,1.6,2.8,2.9,5.1c-10.9,0-21.1,0.1-31.3-0.2c-1.2,0-2.6-2.3-3.5-3.7c-17.5-29.4-35-58.9-52.4-88.4
		c-0.9-1.5-1.9-3.1-3.2-5.2c-1.2,1.8-2.2,3.2-3.1,4.7c-18.2,29.4-36.4,58.9-54.4,88.4c-2.1,3.5-4.4,4.7-8.3,4.5
		c-6.8-0.3-13.6-0.1-21.2-0.1c1.4-2.4,2.4-4.2,3.5-6c22.5-36.4,44.9-72.7,67.5-109c1.8-3,1.9-5,0.1-8c-20-33.6-39.8-67.3-59.7-100.9
		C1151,2226.6,1150,2224.9,1148.6,2222.3z"/>
	<path fill="#FFFFFF" d="M792.7,2451.9c0-76.5,0-152.8,0-229.3c1.6-0.1,3-0.3,4.5-0.3c29.8,0,59.6-0.2,89.5,0.1
		c17,0.2,33,3.9,46.4,15.3c29.3,24.9,29.8,73.6,0.8,96.8c-3.1,2.5-6.6,4.5-10.1,6.4c-3.4,1.8-7,3.1-10.9,4.7
		c14.9,35.3,29.8,70.6,45,106.6c-10,0-19.3,0.2-28.7-0.2c-1.2,0-2.7-2.6-3.4-4.2c-12.8-30.1-25.6-60.2-38.1-90.4
		c-1.7-4.1-3.7-5.3-8-5.2c-19.8,0.3-39.6,0.1-60,0.1c0,33.3,0,66.3,0,99.7C810.5,2451.9,801.9,2451.9,792.7,2451.9z M819.7,2328.1
		c22.2,0,43.8,0.1,65.5-0.1c3.9,0,7.9-1,11.8-2c16.8-4.4,28.8-19.8,29.6-37.8c0.9-19.2-7.4-32.6-24.3-38.7c-4.8-1.7-10-3.1-15.1-3.1
		c-22.2-0.3-44.3-0.1-66.5-0.1c-0.3,0-0.5,0.3-1,0.6C819.7,2273.8,819.7,2300.7,819.7,2328.1z"/>
	<g>
		<path fill="#F47C4B" d="M3497.1,2674.7c17.6-11.6,35.4-23.1,52.9-34.9c43.6-29.2,87.3-58.1,130.5-87.8
			c23.5-16.2,45.5-34.5,63.5-56.8c16.1-19.9,28.6-41.9,32.5-67.6c7.7-51-25.9-93.8-70.5-101.2c-18.9-3.1-37.5-2.1-55.6,4.1
			c-27,9.3-43.8,29.1-53.3,55.1c-4.7,12.9-7,26.6-10.3,39.9c-0.4,1.8-0.7,3.6-1.2,5.9c-11.9-3-23.6-5.9-35.3-8.8
			c-16-4-31.9-8.2-47.9-11.8c-4.5-1-4.7-3.1-4.1-6.6c7.2-39.7,24.6-74.2,52.3-103.7c29.6-31.4,66-48.8,108.5-53.8
			c39.3-4.6,78-2.4,114.7,13.2c56,23.9,90.5,65.9,99.6,126.5c9.9,66-12.4,120.9-62.2,164.7c-29.7,26.2-62.5,48.2-96.1,68.9
			c-33.4,20.6-67.4,40.3-101.2,60.4c-1.7,1-3.3,2-4.7,4c88,0,176,0,264.4,0c0,26.5,0,52.4,0,78.9c-1.7,0.1-3.4,0.3-5.2,0.3
			c-122.1,0-244.3,0-366.4,0c-1.7,0-3.3-0.1-5-0.1C3497.1,2734.1,3497.1,2704.4,3497.1,2674.7z"/>
		<path fill="#F47C4B" d="M3967.3,2512.9c0.5-46.9,5.7-92.9,22.8-137c13.5-34.8,32.6-65.9,61-90.7c26.9-23.5,58.5-36.4,94.1-39.4
			c35-3,68.9,1,100.7,16.5c38.1,18.6,64.7,48.6,82.8,86.3c16.8,34.9,27.6,71.7,31.2,110.3c5.4,58.7,1.3,116.7-16.1,173.3
			c-11.7,38.2-32.4,70.9-62.3,97.7c-25.2,22.6-54.8,35.5-88.2,39.8c-31.4,4.1-62.5,2.6-92.7-7.6c-39.2-13.1-67.8-39.2-89.3-73.9
			c-19.9-32.1-32.5-67-37.9-104.3c-3.5-23.5-5-47.3-7.4-70.9C3966.4,2513,3966.9,2513,3967.3,2512.9z M4268.3,2503.9
			c-1.2-20.9-1.7-37.2-3.2-53.5c-2.7-29.6-9.8-58.3-21.1-85.9c-8.5-20.8-22.2-37.3-43.9-45.3c-8.8-3.2-18.3-5.2-27.6-6
			c-22.3-2-43,2.8-61,16.9c-15,11.8-24.6,27.4-31.7,44.7c-12.9,31.4-17,64.5-18.9,98c-2,37.6-1.1,75.2,4.8,112.5
			c3.6,22.9,9.1,45.3,18.9,66.4c9.3,20.2,23.7,35.3,45,42.9c17,6.1,34.6,6.7,52.2,3.7c29.6-5.1,49.5-22.9,63-48.8
			c9.9-19,14.9-39.6,16.9-60.6C4264.8,2559.1,4266.4,2529.2,4268.3,2503.9z"/>
		<path fill="#F47C4B" d="M3980.3,2763.5c-30.8,0-61.1,0-91.7,0c0-32.3,0-64.4,0-97c1.8-0.1,3.6-0.3,5.4-0.3c27,0,54,0.1,81-0.1
			c4.2,0,5.8,0.9,5.7,5.5c-0.2,29-0.1,58-0.1,87C3980.6,2760.1,3980.5,2761.5,3980.3,2763.5z"/>
	</g>
	<g>
		<path fill="#FFFFFF" d="M1019.5,3294c7.1,1.4,14.4,2.4,21.3,4.4c23.7,6.6,41.7,20.8,54.8,41.4c7.7,12.1,13.2,25.3,17.2,39.7
			c-11.6,2.8-23,5.6-34.4,8.4c-2.1-6.2-3.9-12.2-6.1-18.1c-13.5-34.4-48.8-47.7-77.7-44.4c-33.3,3.7-51.9,24.1-63.2,53.5
			c-9.6,24.9-12.3,50.9-11.5,77.4c0.7,21.6,3.6,42.8,12.5,62.7c10,22.3,24.9,39.7,49,47.3c34.1,10.8,70.1-2,86.7-30.6
			c6.5-11.2,9.3-23.4,10.1-36.2c0.4-7.3,0.1-14.6,0.1-22.4c-24.4,0-48.3,0-72.6,0c0-10.6,0-20.6,0-30.9c36.6,0,73.1,0,110,0
			c0,50.4,0,100.6,0,151.6c-7,0-13.9,0.1-20.8-0.2c-0.9,0-2.2-2.1-2.6-3.5c-2.7-9.4-5.3-18.9-7.9-28.3c-0.4-1.3-0.8-2.5,0-2.3
			c-6.5,5.7-12.8,11.6-19.5,17c-13.7,10.8-29.5,16.4-46.7,18.4c-1.3,0.1-2.5,0.6-3.8,1c-8,0-16,0-24,0c-1.4-0.3-2.9-0.8-4.3-1
			c-19.9-2.2-38.3-8.8-53.8-21.6c-29.1-24.1-43.5-56.3-49.8-92.7c-1.4-8.2-2.1-16.4-3.1-24.7c0-6.7,0-13.3,0-20
			c0.3-2.1,0.8-4.2,0.9-6.3c1.6-26.9,8-52.4,21.2-76.1c16-28.7,38.2-50.1,70.6-59.1c7.3-2,14.9-3.1,22.3-4.5
			C1002.8,3294,1011.2,3294,1019.5,3294z"/>
		<path fill="#FFFFFF" d="M2073.4,3294c6,1.1,12.1,2,18,3.5c29.2,7.4,49.5,25.9,62.5,52.4c5.4,11.1,8.9,23.2,13.2,34.9
			c0.3,0.9,0.2,1.9,0.4,3.4c-11.4,2.3-22.6,4.5-34,6.8c-2.1-6.1-4-12.1-6.2-17.9c-6.1-15.6-14.2-29.8-27.9-40
			c-28.7-21.3-72.1-14.1-94.4,15.3c-12.8,16.9-19.1,36.4-22.2,57c-4.3,28.5-4.6,57.1,1.7,85.4c4,18.1,11.2,34.7,23.1,49.2
			c28.8,35.2,81.7,33.3,107.7-4c8.8-12.6,14.1-26.7,18.1-41.3c0.3-1.1,0.7-2.2,1.2-3.6c11,2.5,21.7,4.9,32.8,7.4c0,1,0.2,1.8,0,2.5
			c-6,22.7-14.6,44.2-30.3,62.2c-16.5,19-37.6,29.1-62.4,32c-1.1,0.1-2.2,0.6-3.2,0.9c-8,0-16,0-24,0c-7.1-1.5-14.3-2.5-21.3-4.6
			c-28.7-8.3-48.2-27.7-62.7-53c-14.3-25.1-21.2-52.4-23.1-81.1c-1.9-28.3,0.1-56.2,9.3-83.2c10.9-31.8,29.5-57.6,60.3-73
			c11.4-5.7,23.5-8.9,36.2-10.2c1.1-0.1,2.2-0.6,3.3-0.9C2057.4,3294,2065.4,3294,2073.4,3294z"/>
		<path fill="#FFFFFF" d="M1193.5,3600c-6-1.3-12.1-2.2-17.9-4c-23.8-7.2-39.4-23-44.8-47.1c-5.6-25.3,1.6-47.4,21.5-64.8
			c14.3-12.5,31.6-17.9,49.8-21.1c23.1-4,46.3-4.8,69.7-3.3c2.5,0.2,5,0.2,7.5,0.2c0.5,0,0.9-0.3,1.9-0.6c-0.6-12.9,0-25.9-4.7-38.3
			c-4.3-11.2-13.5-17.1-24.4-20.4c-18.7-5.6-37.5-5.2-56,1c-14.9,5-24.5,15.4-28.8,30.7c-0.3,1.1-0.7,2.2-1.2,3.6
			c-10.2-1.8-20.3-3.5-30.8-5.3c1.7-11.2,5.9-20.9,12.6-29.6c10.2-13.3,24.1-20.8,39.9-24.9c24.3-6.3,49-7,73.7-2.3
			c27.5,5.3,43.9,22,48.7,49.3c2.2,12.7,3.2,25.8,3.4,38.7c0.6,34.6,0.3,69.3,0.9,104c0.2,9.2,2.1,18.4,3.3,27.9
			c-10.6,0-21.5,0-33.3,0c-1.2-12.2-2.4-24.5-3.7-37.4c-3.4,5-6.1,9.7-9.4,13.9c-13.2,17.1-30.9,26.2-52.2,28.8
			c-1.3,0.2-2.6,0.6-3.8,0.9C1208.1,3600,1200.8,3600,1193.5,3600z M1280.7,3486.4c-12.2-2.1-45.5-2-57.2-0.1
			c-14.9,2.4-29.4,5.9-41.6,15.3c-13.6,10.4-18.8,24.6-15.8,41c2.9,16.4,14,26,30,29.6C1249.7,3584.1,1288.9,3536.5,1280.7,3486.4z"
			/>
		<path fill="#FFFFFF" d="M1744.4,3600c-5.5-1.2-11-2.1-16.4-3.5c-26.8-7.3-46.7-24-58.2-48.7c-19.6-41.9-19.9-84.9,1.9-125.8
			c28.3-53,86.1-60.9,126.9-41.8c24.8,11.6,39,32.4,46.6,58.1c4.8,16.4,6.6,33.2,6.5,50.6c-52.4,0-104.7,0-158.1,0
			c0.7,9.2,1.2,17.9,2.2,26.5c0.5,4.6,1.8,9.1,3,13.6c8.1,31.7,44.4,46,68.1,42.5c22.6-3.3,37.5-15.8,47.2-35.5
			c0.9-1.9,1.8-3.9,2.8-6c10.4,2.1,20.6,4.2,31.2,6.4c-3.1,10.8-8.2,20.2-15.2,28.5c-16.6,19.7-37.6,31.3-63.3,34.2
			c-0.8,0.1-1.5,0.6-2.3,0.9C1759.7,3600,1752.1,3600,1744.4,3600z M1814.9,3462.7c-0.5-5.3-0.7-10.2-1.5-15.1
			c-3.5-21.4-13.7-38.2-34.5-46.6c-25.5-10.4-54.5-1.1-70.5,22.1c-8.2,11.9-11.9,25.3-12.9,39.7
			C1735.4,3462.7,1774.8,3462.7,1814.9,3462.7z"/>
		<path fill="#FFFFFF" d="M3122.2,3600c-5.5-1.2-11-2.1-16.4-3.5c-26.7-7.3-46.5-23.7-58-48.3c-19.9-42.2-20.3-85.5,2-126.7
			c28.4-52.6,85.8-60.3,126.3-41.5c26.5,12.3,41.2,34.6,47.9,62.2c2.9,11.7,3.6,23.9,5.3,35.9c0.4,2.9,0.6,5.9,0.9,8.9
			c0,0.7,0,1.3,0,2c-52.7,0-105.4,0-158.7,0c0.6,8.6,1,16.4,1.8,24.1c2.7,24.6,14,43.2,37.5,53.4c26.6,11.5,62.7,6,79.6-27.5
			c1.5-2.9,2.9-5.9,4.5-9c10.4,2.1,20.5,4.2,31.1,6.4c-0.6,2-1.1,3.7-1.8,5.4c-10.8,26.6-30.5,43.9-57.3,53.1
			c-7,2.4-14.4,3.4-21.6,5.1C3137.6,3600,3129.9,3600,3122.2,3600z M3192.7,3462.8c-0.5-5.4-0.8-10.4-1.6-15.3
			c-3.5-21.4-13.8-38.2-34.5-46.6c-30.4-12.3-64.5,3.3-77.4,34.9c-3.5,8.6-5.4,17.5-5.9,27
			C3113.2,3462.8,3152.5,3462.8,3192.7,3462.8z"/>
		<path fill="#FFFFFF" d="M2268.3,3600c-5.5-1.2-11-2.1-16.4-3.6c-27.7-7.7-44.7-27.1-56.1-52.2c-11-24.3-13.2-50-10.8-76.2
			c2-22,8.5-42.4,22.3-59.9c22.3-28.4,51.7-40.1,87.4-36.4c32.9,3.4,56.2,21,70.3,49.9c19.6,40,20.3,81.4,2,122
			c-13.4,29.8-36.6,48.9-69.5,54.9c-2.4,0.4-4.8,1-7.2,1.5C2283,3600,2275.7,3600,2268.3,3600z M2342.4,3484.9
			c-0.2-16.9-1.3-33.6-8.2-49c-9.9-22.1-26.6-35.7-51.4-36.7c-25.1-1.1-46.9,14.6-55,40.3c-9.9,31.3-9.6,63.1,0.8,94.2
			c8.2,24.6,29.7,39.2,54.9,38.2c25-1,41.2-15.1,50.8-37.3C2341.1,3518.7,2342.2,3501.7,2342.4,3484.9z"/>
		<path fill="#FFFFFF" d="M2858.3,3600c-5.5-1.2-11-2.1-16.4-3.6c-27.7-7.7-44.7-27.1-56.1-52.2c-11-24.3-13.2-50-10.8-76.2
			c2-22,8.5-42.4,22.3-59.9c22.3-28.4,51.7-40.1,87.4-36.4c32.9,3.4,56.2,21,70.3,49.9c19.6,40,20.3,81.4,2,122
			c-13.4,29.8-36.6,48.9-69.5,54.9c-2.4,0.4-4.8,1-7.2,1.5C2872.9,3600,2865.6,3600,2858.3,3600z M2811.2,3486
			c-0.2,13.2,1.1,27.5,5.1,41.5c7.9,28,29.8,45.3,57.2,44.2c25-1,41.1-15.2,50.7-37.4c5-11.4,6.8-23.6,7.6-35.9
			c1.3-21.2,1-42.4-7.6-62.3c-9.5-22.1-26.1-35.6-50.6-37.1c-23.8-1.4-44.8,12.8-54.3,35.7C2812.7,3450.8,2811.1,3467.6,2811.2,3486
			z"/>
		<path fill="#FFFFFF" d="M2661.3,3600c-7.1-1.3-14.4-2.3-21.4-4.1c-29.4-7.4-49.2-25.3-58.8-54.2c-0.4-1.2-0.6-2.5-1.1-4.1
			c10.8-2.2,21.1-4.4,31.5-6.5c0.3,0.5,0.7,0.9,0.8,1.3c6.4,21.2,21.3,32.7,42.3,37c17.8,3.7,35.7,4.5,53-2.6
			c15.7-6.4,22.9-16.9,22.6-32.3c-0.2-9.4-4.7-16.4-12.3-21.6c-10.2-7-22.2-8.6-33.9-10.9c-16.3-3.3-32.7-6.1-48.7-10.2
			c-14.1-3.6-26.6-10.8-35.7-22.4c-15.9-20.1-14.7-51.9,2.3-71.6c12.3-14.3,28-22.2,46.4-25c22.4-3.5,44.5-2.3,65.8,6
			c21.8,8.6,35.2,24.8,42.2,47.6c-10.3,2.2-20.4,4.5-30.5,6.7c-0.4-0.5-0.9-0.9-1-1.3c-9.2-21.9-26.8-31.3-49.5-32.5
			c-13.1-0.7-25.9,0.8-37.6,7.7c-16.2,9.5-19.6,30.7-7,42.9c7,6.7,15.9,9.5,25.1,11.3c19.1,3.7,38.3,6.9,57.2,11.2
			c14.8,3.4,28.1,10,38.8,21.4c19.6,20.9,22.5,66.2-12.6,89.6c-13.9,9.3-29.2,14-45.7,15.9c-1.8,0.2-3.6,0.7-5.3,1
			C2679.3,3600,2670.3,3600,2661.3,3600z"/>
		<path fill="#FFFFFF" d="M1373.5,3593.7c-10.8,0-21,0-31.7,0c0-72,0-144,0-216.4c9.3,0,18.7,0,28.5,0c0,13,0,25.9,0,38.8
			c0.3,0.1,0.6,0.2,0.9,0.3c1.7-2.7,3.3-5.4,5-8.1c10.6-16.9,24.1-30.2,44.1-35.3c33.9-8.6,65.1,9.1,76.1,42.9
			c0.6,1.7,1,3.5,1.8,6.1c1-1.8,1.7-3,2.3-4.2c6.6-13.7,15-25.9,27.5-35c29.4-21.3,73-13.6,93.2,16.6c6.9,10.3,9.5,22,10.1,34
			c0.9,19.8,1.1,39.6,1.2,59.4c0.2,31.7,0,63.3,0,95c0,1.8,0,3.6,0,5.7c-11,0-21.6,0-33,0c0-1.8,0-3.7,0-5.7
			c0-45.8,0-91.6-0.1-137.5c0-6-0.4-12-1.6-17.9c-5.1-26.3-32.5-40.9-57-30.1c-21.9,9.6-34.1,26.9-37.3,50.5
			c-0.9,6.7-1.2,13.6-1.2,20.4c-0.1,38-0.1,76-0.1,114c0,2,0,3.9,0,6.2c-11,0-21.6,0-32.8,0c0-1.9,0-3.8,0-5.8
			c0-45.3,0.1-90.6-0.1-136c0-7.3-0.6-14.7-2.3-21.8c-7.2-29.5-41.3-41.6-66.2-23.7c-15.6,11.2-24.2,26.9-26.2,45.8
			c-1,9.6-1,19.3-1,28.9c-0.1,35.7,0,71.3,0,107C1373.5,3589.9,1373.5,3591.7,1373.5,3593.7z"/>
		<path fill="#FFFFFF" d="M2395.6,3377.2c10.4,0,20.3,0,30.8,0c0,12.7,0,25.2,0,39.1c4.3-6,7.5-10.9,11.1-15.6
			c21.4-27.5,54.8-37.5,85.5-24.5c23.5,9.9,38.8,27.2,41.2,53.6c1.1,12.4,2,24.9,2.1,37.4c0.3,40.6,0.1,81.3,0.1,121.9
			c0,1.5-0.1,2.9-0.2,4.6c-10.3,0-20.4,0-31.4,0c0-2.1,0-4.2,0-6.3c0-43.6,0.1-87.3-0.1-130.9c0-8.1-0.9-16.3-2.3-24.3
			c-4.6-25.3-28.6-35.5-49.5-32.9c-26.6,3.3-46,25.8-51.4,52.3c-1.8,8.7-2.3,17.8-2.3,26.8c-0.3,36.3-0.1,72.6-0.1,109
			c0,2,0,3.9,0,6.3c-11.3,0-22.2,0-33.5,0C2395.6,3521.6,2395.6,3449.6,2395.6,3377.2z"/>
		<path fill="#FFFFFF" d="M2985.5,3300.2c11.2,0,21.9,0,33.1,0c0,97.8,0,195.5,0,293.5c-11,0-21.9,0-33.1,0
			C2985.5,3496,2985.5,3398.3,2985.5,3300.2z"/>
	</g>
	<g>
		<path fill="#FFFFFF" d="M2561.7,3239.5c-9.6-1-19.2-1.8-28.8-3c-61.3-7.9-113.9-33.4-155.6-79.5c-45.5-50.3-72.7-109.9-86.7-175.9
			c-9.6-45.4-12.5-91.3-9.9-137.5c4.2-74.8,23.9-144.7,67-206.9c32.3-46.6,72.9-83.2,126.2-104.4c28-11.2,57.2-17.1,87.3-18.9
			c41.7-2.6,82.4,1.6,121.8,15.8c52.2,18.8,92.7,52.7,124.5,97.5c32.3,45.4,52.6,95.9,63.1,150.5c8.7,45.2,10.7,90.9,7.7,136.7
			c-3.8,59.3-16.4,116.4-44.6,169.3c-28,52.4-66.1,95.3-118.9,123.9c-29.6,16-61.2,25.5-94.6,29.6c-9.2,1.1-18.5,2-27.7,3
			C2582.4,3239.5,2572.1,3239.5,2561.7,3239.5z M2741.9,2859.3c0.2-18.5-2.3-54.5-9.2-90.1c-6.1-31.1-15.7-61.1-32-88.6
			c-15.1-25.4-35.5-44.8-63.2-55.7c-26.2-10.3-53.3-12.1-81-8.5c-32.4,4.3-60,17.8-81.9,42.3c-16.7,18.6-27.8,40.4-35.9,63.9
			c-14.2,41-19.1,83.5-20.6,126.5c-1.5,41.6-0.4,83.2,6.7,124.4c5.4,30.9,13.7,60.9,29,88.6c33.1,59.7,85.3,81.7,147.8,73
			c41.3-5.8,72.9-28.5,97.5-61.3c17.1-22.8,25.6-49.4,31.6-76.9C2739.3,2957.5,2741.7,2917.3,2741.9,2859.3z"/>
		<path fill="#FFFFFF" d="M3178.7,3239.5c-7.6-0.7-15.2-1.3-22.8-2c-53.9-4.6-104.9-18.8-151.4-47.1c-49.7-30.2-80-74.9-95.7-130.3
			c-0.1-0.3,0-0.7,0-1.6c7.3-1.6,14.7-3.3,22.1-4.9c32.2-6.8,64.3-13.6,96.5-20.5c2.8-0.6,4.5-1,5.4,2.7
			c11.2,47.9,42.3,76.6,88.2,90.7c29.9,9.2,60.7,11.2,91.8,10.3c24.8-0.7,49.1-4.1,71.9-14.3c23.7-10.6,42.8-26.3,52.9-51
			c13-31.8,2.5-86.5-42.7-106.1c-19.2-8.3-39.2-13.5-59.2-18.8c-48.8-12.9-97.6-25.5-146.2-39.2c-25.5-7.2-50.1-17.1-71.9-32.6
			c-30.6-21.6-49.8-51.6-61-86.6c-18.1-56.5-15.6-112,13.3-164.7c21.2-38.7,54.5-65,93.7-83.9c30-14.4,61.8-22.1,94.8-25.2
			c45.7-4.3,90.8-1.3,135,11.3c35,10,67.7,24.9,96.2,47.9c28.6,23,48.2,52.1,58.4,87.4c0.4,1.2,0.6,2.5,0.9,4.1
			c-18,4.5-35.7,9-53.4,13.4c-21,5.2-41.9,10.2-62.9,15.5c-3.2,0.8-4.7,0.5-5.9-2.8c-16.5-43.7-49.4-66.6-94.5-73.6
			c-30.8-4.8-61.4-3.9-91.4,5c-19.8,5.9-36.6,16.6-49.2,33.2c-21.1,27.5-25,75.3,16,103.6c20.6,14.2,43.8,22.1,67.7,28.1
			c48.3,12.3,96.6,24.2,144.7,37.1c27.5,7.4,53.5,18.8,77.8,34c34.6,21.5,55.5,53.3,68.7,90.9c5.6,15.9,9,32.3,10.2,49.1
			c0.1,1.3,0.6,2.5,0.9,3.8c0,9.7,0,19.3,0,29c-0.3,1.4-0.7,2.9-0.9,4.3c-2.2,13.4-3.4,27.1-6.8,40.2c-12.9,49.9-43.4,86.8-86,114.5
			c-44.2,28.8-93.4,42.4-145.5,47c-7.6,0.7-15.2,1.3-22.8,2C3203.3,3239.5,3191,3239.5,3178.7,3239.5z"/>
		<path fill="#FFFFFF" d="M744.6,3228.5c4.3-13.1,8.4-25.5,12.5-37.9c73.3-220.7,146.5-441.4,219.7-662.1c1.3-3.8,2.8-5,6.9-5
			c48.8,0.2,97.6,0.2,146.5,0c3.8,0,5.5,1.1,6.7,4.7c77.6,231.5,155.3,463,232.9,694.5c0.6,1.7,1,3.5,1.7,5.9c-2,0-3.6,0-5.2,0
			c-41.8,0-83.6-0.1-125.5,0.1c-4.2,0-5.6-1.5-6.9-5.1c-17.6-52.8-35.3-105.5-52.9-158.2c-1.2-3.6-2.7-4.8-6.6-4.8
			c-87.1,0.1-174.3,0.1-261.4,0c-3.6,0-5.1,1.1-6.2,4.5c-17.2,52.7-34.6,105.3-51.8,158c-1.3,4-2.9,5.7-7.5,5.6
			c-32.3-0.2-64.7-0.1-97-0.1C748.8,3228.5,747,3228.5,744.6,3228.5z M940,2958.4c68.6,0,136.6,0,205.2,0
			c-34.1-104.5-68.1-208.5-102.1-312.6c-0.3,0.1-0.7,0.1-1,0.2C1008.1,2750.1,974.1,2854.2,940,2958.4z"/>
		<path fill="#FFFFFF" d="M1876.1,2960.2c38.8-47.6,80.8-90,120.8-134.1c35.4-39,71.2-77.5,107-116.2c1.5-1.6,4.1-3.1,6.2-3.1
			c39.8-0.2,79.6-0.1,119.5-0.1c0.8,0,1.6,0.1,3.4,0.2c-5.3,5.9-10,11.2-14.8,16.4c-45.6,50.1-91.3,100.3-137.1,150.3
			c-3.8,4.1-4.6,7-1.9,12.4c56,112.4,111.7,225,167.5,337.6c0.7,1.4,1.3,2.9,2.2,5c-2.3,0-4.1,0-5.9,0c-37.5,0-75-0.1-112.5,0.1
			c-4,0-6.1-1.2-7.9-4.8c-42.6-85.7-85.2-171.4-127.9-257.1c-0.8-1.6-1.7-3.2-2.9-5.5c-2.7,2.9-5.1,5.5-7.4,8.2
			c-35.1,39.3-70.1,78.5-105,117.9c-1.9,2.1-3.1,5.5-3.1,8.3c-0.2,42.2-0.1,84.3-0.1,126.5c0,2,0,3.9,0,6.1c-37.6,0-74.7,0-112.1,0
			c0-234.7,0-469.4,0-704.4c37.1,0,74.2,0,112.1,0C1876.1,2669,1876.1,2814.1,1876.1,2960.2z"/>
		<path fill="#FFFFFF" d="M1434.1,2706.9c35.4,0,70.4,0,105.6,0c0,40.5,0,80.8,0,121c0.3,0.1,0.6,0.2,1,0.2c0.7-1.7,1.4-3.4,2-5.2
			c9.9-29.5,22.6-57.7,43.2-81.4c21.1-24.3,46.7-42.2,78.9-48.2c11.1-2.1,22.7-1.7,34.5-2.5c0,43.1,0,85,0,127.2
			c-7.8,0.5-15.8,0.7-23.6,1.5c-25.5,2.5-49.7,9-70.3,25.4c-10.2,8.1-18.2,18-24.2,29.5c-14.1,27.2-24.2,55.7-28.2,86.2
			c-1.2,9-1.5,18.3-1.5,27.4c-0.1,77.8-0.1,155.6-0.1,233.4c0,2.1,0,4.3,0,6.7c-39.3,0-78.2,0-117.5,0
			C1434.1,3054.5,1434.1,2880.9,1434.1,2706.9z"/>
	</g>
</g>
<g id="Colored_Buttons">
	<path fill="#52585E" d="M2494.8,1918.4c75.4,0,150.9,0,226.3,0c21.7,0,40.5,7.7,55,24.3c18.6,21.2,24.1,46.1,15.4,73.1
		c-8.8,27.2-27.8,43.8-55.3,49.7c-4.8,1-9.8,1.5-14.7,1.5c-151.3,0.1-302.6,0.1-454,0c-35.4,0-64.5-23.9-72.1-58.7
		c-9.3-42.7,20.5-84.8,63.2-89.3c3.7-0.4,7.4-0.6,11.2-0.6C2344.8,1918.4,2419.8,1918.4,2494.8,1918.4z"/>
	<path fill="#CD6130" d="M1911.6,1714.3c-75.7,0-151.5,0.1-227.2,0c-23.9,0-43.6-9.5-58.4-28.7c-33.5-43.6-9.7-107.9,43.7-118.4
		c4.8-0.9,9.8-1.5,14.7-1.5c151.3-0.1,302.6-0.1,454,0c35.4,0,64.5,23.9,72.1,58.7c8.8,40.2-17.3,80.7-57,88.4
		c-5.4,1-11,1.5-16.5,1.5C2061.9,1714.3,1986.8,1714.3,1911.6,1714.3z"/>
	<path fill="#547BBD" d="M1911.6,2271.3c75.3,0,150.6,0,225.9,0c20.5,0,38.6,6.7,53,21.6c20.3,21,26.7,46.4,18.3,74.5
		c-8.4,27.9-27.6,44.9-55.7,51c-4.8,1-9.8,1.5-14.7,1.5c-151.3,0.1-302.6,0.1-454,0c-34.6,0-63.6-23.1-71.7-56.9
		c-10.4-43.2,19.5-86.7,62.8-91.2c3.9-0.4,7.7-0.6,11.6-0.6C1761.9,2271.3,1836.7,2271.3,1911.6,2271.3z"/>
	<path fill="#8CB94A" d="M3076.9,1714.3c-75.4,0-150.9,0.2-226.3-0.1c-28.4-0.1-50.4-13-64.5-38.2c-24.9-44.8,2.5-101.7,52.5-109.4
		c4.1-0.6,8.3-0.9,12.5-0.9c150.7,0,301.5,0,452.2-0.1c37.2,0,63.5,24.9,71.7,53.5c12.7,44.2-17,89.8-61.9,94.7
		c-3.6,0.4-7.1,0.6-10.7,0.6C3227.2,1714.3,3152.1,1714.3,3076.9,1714.3z"/>
	<path fill="#F4CE33" d="M3077.4,2420c-75.6,0-151.2,0.2-226.8-0.1c-28.2-0.1-50.2-12.8-64.3-37.8c-25.3-44.8,2-102.1,52.2-109.8
		c4.1-0.6,8.3-0.9,12.5-0.9c150.7,0,301.5,0,452.2-0.1c35.7,0,61.8,23,70.9,50.8c14.7,44.8-15.1,92.4-61.1,97.3
		c-3.6,0.4-7.1,0.6-10.7,0.6C3227.4,2420,3152.4,2420,3077.4,2420z"/>
	<path fill="#6A91CB" d="M2485.1,1714.3c-18.1,0-36.1,0.1-54.2,0c-21-0.2-39.2-7.8-53.5-23.7c-18.9-21.2-24.5-46.2-15.9-73.4
		c8.6-27.1,27.4-43.6,54.7-49.9c4.8-1.1,9.8-1.6,14.7-1.6c36.3-0.1,72.6-0.2,108.9,0c32.1,0.2,59.5,20.5,69.4,50.9
		c14.1,43.5-13.4,89.6-57.8,96.7c-4.1,0.7-8.3,0.9-12.5,0.9C2521,1714.3,2503,1714.3,2485.1,1714.3z"/>
	<path fill="#EDC05A" d="M2485.3,2420c-18.2,0-36.4,0.2-54.7,0c-20.7-0.2-38.7-7.7-52.8-23.2c-19.1-21.1-25-46-16.6-73.3
		c8.5-27.5,27.4-44.3,55.1-50.5c4.8-1.1,9.8-1.5,14.7-1.5c36.1-0.1,72.3-0.2,108.4,0c33.3,0.2,61.6,21.9,70.5,53.8
		c12.4,44.6-17.2,89.4-62.4,94.3c-3.3,0.4-6.6,0.5-9.8,0.5C2520.3,2420,2502.8,2420,2485.3,2420z"/>
	<path fill="#89C651" d="M1920.6,2067.1c-18.1,0-36.1,0.1-54.2,0c-20.9-0.2-39-7.6-53.2-23.2c-19.1-21.1-25-46-16.6-73.3
		c8.4-27.5,27.4-44.3,55.1-50.6c4.6-1,9.5-1.5,14.2-1.5c36.4-0.1,72.9-0.2,109.3,0c34.8,0.1,64.2,24.3,71.3,59.1
		c9.2,45.3-22.7,84.7-63.2,89c-3.7,0.4-7.4,0.6-11.2,0.6C1955,2067.2,1937.8,2067.1,1920.6,2067.1z"/>
	<path fill="#EF4658" d="M3068.6,1918.4c18.1,0,36.1-0.1,54.2,0c16.7,0.1,32,4.9,44.9,15.7c24.2,20.3,33.5,46.6,25.6,77.5
		c-7.8,30.6-28.5,48.4-58.8,54.5c-3.8,0.8-7.7,0.9-11.6,1c-36.3,0.1-72.6,0.2-108.9,0c-30.9-0.2-57.6-19-68.4-47.9
		c-16.4-43.9,11.2-92.6,56.7-99.7c4.3-0.7,8.6-0.9,12.9-0.9C3033.1,1918.4,3050.9,1918.4,3068.6,1918.4z"/>
</g>
</svg>
